<svg xmlns="http://www.w3.org/2000/svg" style="fill-rule:evenodd;clip-rule:evenodd;stroke-linejoin:round;stroke-miterlimit:2" viewBox="0 0 48 48"><path fill="none" d="M0 0h48v48H0z" style="fill:#fff;fill-opacity:0"/><circle cx="24" cy="24" r="22.1"/><path d="M9.15 21.99a1.24 1.24 0 0 1-.13-.53c0-.58.47-1.12 1.41-1.6a6.71 6.71 0 0 1 3.1-.73c.64 0 1.15.12 1.53.36.4.25.59.56.59.95 0 .72-.52 1.4-1.54 2.03.6.16 1.07.4 1.4.74.35.32.52.7.52 1.11 0 .82-.45 1.52-1.34 2.1-.89.57-1.97.86-3.23.86-.93 0-1.4-.3-1.4-.88 0-.14.05-.47.15-.98l.72-3.6c.06-.28.09-.49.09-.6a.5.5 0 0 0-.13-.33c.45-.17.76-.26.94-.26.21 0 .32.12.32.36 0 .06-.06.36-.17.9l-.66 3.33c-.08.39-.12.64-.12.76 0 .42.41.64 1.22.64.67 0 1.24-.2 1.71-.58.48-.38.72-.85.72-1.38 0-.42-.13-.75-.4-.99-.26-.23-.7-.42-1.32-.55-.22.1-.46.14-.72.14-.09 0-.2-.02-.33-.05.1-.36.22-.6.37-.73s.38-.19.71-.19c.09 0 .2 0 .34.02.72-.53 1.08-1.05 1.08-1.57 0-.61-.46-.92-1.4-.92-1.5 0-2.85.72-4.03 2.17ZM26.26 25.52c-.93 1-2 1.5-3.22 1.5a2.9 2.9 0 0 1-1.87-.56c-.46-.37-.7-.87-.7-1.5 0-1.24.81-2.12 2.43-2.65-.54-.27-.81-.7-.81-1.31 0-.54.24-.98.72-1.34a3 3 0 0 1 1.82-.53c.45 0 .83.07 1.13.22.3.14.45.32.45.53 0 .17-.1.35-.31.54-.29-.53-.75-.79-1.4-.79-.43 0-.79.12-1.06.35a1.1 1.1 0 0 0-.42.88c0 .4.23.78.68 1.12.3-.06.55-.1.77-.1.2 0 .4.04.62.1-.2.54-.54.81-1.02.81-.2 0-.42-.05-.66-.15-.58.2-1.04.52-1.4.94-.34.4-.52.85-.52 1.33 0 .43.18.78.54 1.05.35.27.82.4 1.38.4.68 0 1.37-.25 2.06-.76.69-.5 1.03-1.01 1.03-1.51 0-.27-.14-.46-.42-.59l-.14-.05c-.16-.07-.24-.17-.24-.3 0-.16.07-.37.2-.64.43.19 1.06.28 1.9.28.45 0 .89-.05 1.34-.15-.13.37-.29.62-.47.76-.2.13-.49.2-.89.2-.07 0-.2 0-.36-.02a9.1 9.1 0 0 0-.62 2.83c0 .54.1.96.3 1.26-.24.21-.5.32-.77.32-.22 0-.33-.17-.33-.52 0-.4.09-1.05.26-1.95ZM37.11 19.87l-.9 4.5c-.31 1.58-.82 2.75-1.53 3.48-.7.74-1.45 1.11-2.24 1.11-.4 0-.79-.11-1.14-.34-.35-.22-.52-.47-.52-.73 0-.32.23-.62.69-.89 0 .4.12.7.36.93.24.23.57.35.98.35.6 0 1.06-.24 1.37-.7.31-.46.6-1.33.85-2.6l.98-4.96c-.48.1-.78.14-.9.14-.44 0-.68-.27-.74-.81.15.08.33.12.54.12.27 0 .71-.06 1.33-.19l.49-.1c.44-.1.82-.14 1.14-.14.37 0 .63.07.79.22.15.15.26.43.32.84-.3-.2-.66-.31-1.07-.31-.21 0-.48.02-.8.08Z" style="fill:#fff;fill-rule:nonzero"/></svg>